<svg xmlns="http://www.w3.org/2000/svg" width="1500" height="1500" viewBox="0 0 1500 1500">
  <g id="그룹_35668" data-name="그룹 35668" transform="translate(-4762 -1979)">
    <rect id="사각형_7450" data-name="사각형 7450" width="1500" height="1500" transform="translate(4762 1979)" fill="#fff"/>
    <g id="그룹_35667" data-name="그룹 35667" transform="translate(4822 1927)">
      <path id="제외_2" data-name="제외 2" d="M-2472.1,674.825a460.142,460.142,0,0,1-46.307-2.338,454.089,454.089,0,0,1-44.969-6.864c-14.59-2.986-29.193-6.741-43.4-11.161-14.05-4.37-28.05-9.495-41.611-15.231a452.917,452.917,0,0,1-76.932-41.76,456.136,456.136,0,0,1-67.028-55.307,456.171,456.171,0,0,1-55.3-67.032,453,453,0,0,1-41.757-76.935c-5.736-13.562-10.859-27.562-15.229-41.612-4.419-14.21-8.174-28.814-11.16-43.4a454.137,454.137,0,0,1-6.863-44.97A460.15,460.15,0,0,1-2925,221.9a460.145,460.145,0,0,1,2.338-46.307,454.135,454.135,0,0,1,6.863-44.969c2.986-14.591,6.741-29.194,11.16-43.4,4.37-14.05,9.494-28.05,15.229-41.611a452.964,452.964,0,0,1,41.757-76.932,456.138,456.138,0,0,1,55.3-67.028,456.12,456.12,0,0,1,67.028-55.3,452.937,452.937,0,0,1,76.932-41.757c13.561-5.736,27.561-10.86,41.611-15.23,14.21-4.42,28.813-8.174,43.4-11.16a454.1,454.1,0,0,1,44.969-6.863A460.171,460.171,0,0,1-2472.1-231a460.214,460.214,0,0,1,46.309,2.338,454.128,454.128,0,0,1,44.971,6.863c14.592,2.986,29.2,6.741,43.405,11.16,14.051,4.37,28.051,9.494,41.612,15.23a452.946,452.946,0,0,1,76.934,41.757,456.156,456.156,0,0,1,67.03,55.3,456.134,456.134,0,0,1,55.3,67.028,452.94,452.94,0,0,1,41.758,76.932c5.736,13.562,10.86,27.562,15.23,41.611,4.419,14.209,8.174,28.812,11.16,43.4a454.039,454.039,0,0,1,6.863,44.969,460.152,460.152,0,0,1,2.338,46.307,460.157,460.157,0,0,1-2.338,46.307,454.077,454.077,0,0,1-6.863,44.97c-2.986,14.593-6.741,29.2-11.16,43.4-4.37,14.05-9.494,28.05-15.23,41.612a452.96,452.96,0,0,1-41.758,76.935,456.169,456.169,0,0,1-55.3,67.032,456.142,456.142,0,0,1-67.03,55.307,452.939,452.939,0,0,1-76.934,41.76c-13.561,5.736-27.562,10.86-41.612,15.231-14.211,4.42-28.814,8.175-43.405,11.161a454.1,454.1,0,0,1-44.971,6.864A460.181,460.181,0,0,1-2472.1,674.825Zm0-697.369a246.219,246.219,0,0,0-49.262,4.967,243.193,243.193,0,0,0-45.883,14.244,244.471,244.471,0,0,0-41.521,22.538,246.219,246.219,0,0,0-36.176,29.85,246.245,246.245,0,0,0-29.848,36.178,244.488,244.488,0,0,0-22.537,41.523,243.241,243.241,0,0,0-14.243,45.884,246.261,246.261,0,0,0-4.966,49.262,246.263,246.263,0,0,0,4.966,49.263,243.236,243.236,0,0,0,14.243,45.884,244.489,244.489,0,0,0,22.537,41.523,246.25,246.25,0,0,0,29.848,36.178,246.215,246.215,0,0,0,36.176,29.85,244.47,244.47,0,0,0,41.521,22.539,243.187,243.187,0,0,0,45.883,14.244,246.218,246.218,0,0,0,49.262,4.967v91.345c.025-.007,3.76-.932,10.17-3.02,5.91-1.925,15.37-5.26,26.876-10.215a368.556,368.556,0,0,0,38.136-19.141,361.737,361.737,0,0,0,43.947-29.8c34.865-27.64,62.971-60.778,83.538-98.493a320.682,320.682,0,0,0,16-33.989,337.327,337.327,0,0,0,12.69-38.168,368.416,368.416,0,0,0,8.7-42.564,417.384,417.384,0,0,0,4.019-47.176c.249-4.608.37-8.934.37-13.227a246.253,246.253,0,0,0-4.966-49.262,243.241,243.241,0,0,0-14.243-45.884A244.5,244.5,0,0,0-2269.4,85.233a246.221,246.221,0,0,0-29.849-36.178,246.222,246.222,0,0,0-36.177-29.85,244.476,244.476,0,0,0-41.523-22.538,243.216,243.216,0,0,0-45.885-14.244A246.251,246.251,0,0,0-2472.1-22.543Z" transform="translate(3145.06 626.869)" fill="#ff6f5e"/>
      <path id="패스_7717" data-name="패스 7717" d="M141.051,68.208C87.062,122.2,64.536,193.733,75.573,255.395c61.672,11.047,133.207-11.479,187.2-65.467s76.5-125.525,65.468-187.2C266.575-8.306,195.039,14.22,141.051,68.208" transform="translate(948.972 198.306)" fill="#ff6f5e"/>
    </g>
  </g>
</svg>
